<?xml version="1.0" encoding="UTF-8" standalone="no"?>
<!-- Generator: Adobe Illustrator 19.0.0, SVG Export Plug-In . SVG Version: 6.00 Build 0)  -->

<svg
   version="1.1"
   id="Layer_1"
   x="0px"
   y="0px"
   viewBox="0 0 149.32886 149.31943"
   xml:space="preserve"
   inkscape:version="0.91 r13725"
   sodipodi:docname="null.svg"
   width="149.32886"
   height="149.31943"
   xmlns:inkscape="http://www.inkscape.org/namespaces/inkscape"
   xmlns:sodipodi="http://sodipodi.sourceforge.net/DTD/sodipodi-0.dtd"
   xmlns="http://www.w3.org/2000/svg"
   xmlns:svg="http://www.w3.org/2000/svg"
   xmlns:rdf="http://www.w3.org/1999/02/22-rdf-syntax-ns#"
   xmlns:cc="http://creativecommons.org/ns#"
   xmlns:dc="http://purl.org/dc/elements/1.1/"><metadata
     id="metadata49"><rdf:RDF><cc:Work
         rdf:about=""><dc:format>image/svg+xml</dc:format><dc:type
           rdf:resource="http://purl.org/dc/dcmitype/StillImage" /><dc:title /></cc:Work></rdf:RDF></metadata><defs
     id="defs47" /><sodipodi:namedview
     pagecolor="#ffffff"
     bordercolor="#666666"
     borderopacity="1"
     objecttolerance="10"
     gridtolerance="10"
     guidetolerance="10"
     inkscape:pageopacity="0"
     inkscape:pageshadow="2"
     inkscape:window-width="1368"
     inkscape:window-height="849"
     id="namedview45"
     showgrid="false"
     fit-margin-top="0"
     fit-margin-left="0"
     fit-margin-right="0"
     fit-margin-bottom="0"
     inkscape:zoom="1.84375"
     inkscape:cx="-33.115955"
     inkscape:cy="73.876272"
     inkscape:window-x="-8"
     inkscape:window-y="-8"
     inkscape:window-maximized="1"
     inkscape:current-layer="Layer_1"
     showguides="false"
     inkscape:showpageshadow="2"
     inkscape:pagecheckerboard="0"
     inkscape:deskcolor="#d1d1d1" /><path
     id="path4190"
     style="fill:#ffffff;fill-opacity:1;stroke:#000000;stroke-width:2.97192;stroke-miterlimit:4;stroke-dasharray:none;stroke-opacity:1"
     d="M 93.066961,40.726368 C 92.937117,39.373492 92.62449,39.054256 90.303534,37.904491 88.864188,37.191452 85.308862,36.005684 82.402817,35.269447 68.574298,31.766049 55.546002,35.005095 45.640419,44.409137 37.498873,52.138465 32.949734,63.6354 33.652948,74.704797 c 0.333521,5.250349 1.374107,9.164171 4.194792,15.777672 l 2.209812,5.18121 26.577914,-26.705928 C 92.139858,43.330523 93.207468,42.19021 93.066961,40.726368 Z M 80.603533,114.43428 c 12.839555,-1.862 24.591547,-10.31157 30.117537,-21.654222 2.5546,-5.243586 3.14845,-8.242241 3.12115,-15.760197 -0.0299,-8.201795 -1.22233,-14.394855 -3.85868,-20.039029 L 108.1921,53.145534 94.886004,66.36983 c -14.793361,14.702424 -32.305703,32.508378 -36.640251,37.25455 -1.821876,1.99488 -2.829035,3.48692 -2.829035,4.19101 0,1.30819 1.572292,2.53126 5.04231,3.92241 7.134228,2.86016 13.312875,3.68721 20.144505,2.69648 z M 4.0383322,146.41775 c -1.0458527,-0.88279 -1.8865045,-2.33113 -2.2930155,-3.95061 -1.05537079,-4.20439 0.1438986,-6.03923 11.6264603,-17.78779 5.563899,-5.6928 10.11619,-10.53685 10.11619,-10.76454 0,-0.22766 -1.372371,-2.84857 -3.049701,-5.82417 C 16.897488,101.80927 13.319795,91.564093 11.990423,83.899206 9.6366809,70.327971 13.586719,52.054818 21.410716,40.32027 24.713365,35.366897 32.939386,26.836957 38.01886,23.098521 53.392298,11.783824 75.534451,8.5130022 94.745236,14.718945 c 2.459079,0.794387 7.844764,3.203674 11.968204,5.353976 l 7.49715,3.909623 5.07373,-5.45883 c 6.25046,-6.724875 14.89377,-14.5026638 17.72891,-15.9535838 1.16517,-0.59628 2.82462,-1.08417 3.68765,-1.08417 4.04744,0 8.22838,5.63631 6.8597,9.2475028 -0.92033,2.428244 -5.72028,8.15681 -14.19273,16.938505 l -7.55019,7.825766 3.84561,8.093479 c 4.53754,9.549686 6.36575,14.764687 7.536,21.496415 1.81326,10.430591 0.58666,21.144427 -3.67193,32.072994 -10.05794,25.811078 -31.73395,40.559468 -59.611092,40.559468 -11.829809,0 -20.664462,-2.39617 -32.207405,-8.73545 -3.042351,-1.67083 -5.794197,-3.03786 -6.115219,-3.03786 -0.321029,0 -4.999462,4.38112 -10.396547,9.73583 -5.508721,5.46549 -10.844949,10.26067 -12.165859,10.93237 -3.2892155,1.67262 -6.8706964,1.59407 -8.9928858,-0.19722 z" /><path
     style="fill:#666666;fill-opacity:0.87451;stroke-width:0.129657"
     d="m 7.061187,146.12473 c -2.0263523,-0.47139 -3.2889068,-1.88923 -3.8676423,-4.34332 -0.3930217,-1.66658 -0.1702324,-2.70282 0.9559542,-4.44636 1.3789531,-2.13486 3.0309913,-3.98065 10.2964581,-11.50403 9.067278,-9.38915 10.303654,-10.74598 10.51829,-11.54308 0.184702,-0.68593 -0.07908,-1.34489 -1.784082,-4.45692 -2.319923,-4.2344 -3.043147,-5.67138 -4.094586,-8.13559 -2.919448,-6.842183 -5.073092,-14.244864 -5.877724,-20.203387 -0.306759,-2.27164 -0.348932,-9.175712 -0.07164,-11.728814 1.10732,-10.195542 4.289149,-20.1017 8.775758,-27.322034 2.666158,-4.290668 8.522286,-10.789816 14.218051,-15.779232 7.537001,-6.602316 18.129161,-11.223705 29.371846,-12.815017 3.516912,-0.49779 5.29236,-0.616239 9.220339,-0.61513 5.057414,0.0014 8.543444,0.343505 13.084745,1.283983 6.663086,1.379889 10.784491,3.069278 22.769246,9.333254 2.15698,1.127373 3.93601,2.049769 3.9534,2.049769 0.0174,0 1.21029,-1.266102 2.6509,-2.813559 5.10003,-5.478305 6.58882,-7.015592 9.30494,-9.608081 4.58016,-4.3716729 8.22959,-7.520028 10.42962,-8.9976079 1.12861,-0.757994 2.93608,-1.4121759 3.86857,-1.4001593 1.51321,0.0195 3.7011,1.6611804 4.68239,3.5134326 0.56088,1.0587208 0.90164,2.3710482 0.78343,3.017227 -0.27427,1.4993586 -2.97865,5.0380086 -8.4064,10.9997176 -2.35766,2.589592 -3.76665,4.068873 -13.11462,13.768889 l -0.78912,0.818842 2.32091,4.876073 c 4.31584,9.067282 5.86539,12.638627 7.18948,16.570032 1.5064,4.472732 2.45056,9.051564 2.84506,13.797567 0.22003,2.646956 0.0786,8.214227 -0.27619,10.868199 -0.94823,7.094175 -2.99716,13.79024 -6.30191,20.595106 -3.4041,7.00942 -7.33602,12.51347 -12.63755,17.69047 -8.81275,8.60577 -19.964926,13.97175 -32.933173,15.84614 -3.719126,0.53755 -5.182394,0.6272 -10.237288,0.6272 -5.208507,0 -6.563211,-0.0904 -10.305085,-0.68761 -4.181614,-0.66739 -8.998527,-2.08104 -13.210343,-3.87691 -1.761823,-0.75123 -3.175823,-1.45584 -10.928404,-5.44574 -2.934543,-1.51027 -3.660369,-1.77088 -4.379286,-1.57238 -0.734959,0.20293 -2.923792,2.2109 -11.375893,10.43588 -6.973804,6.78639 -10.461565,9.87797 -11.85785,10.51087 -1.542377,0.69912 -3.5279026,0.98606 -4.790597,0.69231 z m 73.966102,-30.18191 c 7.878754,-1.27207 15.004895,-4.5539 21.084751,-9.71025 1.60249,-1.35908 4.49228,-4.3539 5.6864,-5.89307 3.67974,-4.743032 6.33047,-10.355194 7.10883,-15.050847 0.30903,-1.86433 0.49179,-4.71089 0.49187,-7.661017 2.1e-4,-7.480666 -0.93187,-13.489466 -2.89204,-18.644068 -0.73741,-1.939149 -3.75165,-8.430976 -3.89001,-8.37798 -0.25898,0.0992 -21.061976,20.80652 -30.491178,30.350949 C 58.574469,100.7469 55.32165,104.20376 54.288969,106.28874 c -0.735137,1.48424 -0.404609,3.04731 0.903039,4.27046 2.338858,2.18773 9.80775,4.8335 15.733586,5.57345 2.317217,0.28935 7.768273,0.18691 10.101695,-0.18983 z M 44.291497,93.661534 C 46.827868,91.107297 56.43069,81.451365 65.631102,72.203907 74.831513,62.956449 84.241696,53.449751 86.542619,51.07791 c 7.719023,-7.956935 8.366899,-8.844453 7.995496,-10.952943 -0.214879,-1.21989 -0.668165,-1.89244 -1.768472,-2.623922 -1.270003,-0.844297 -2.65675,-1.458285 -5.233879,-2.317322 -3.709741,-1.236574 -6.264583,-1.87496 -9.536094,-2.382817 -2.622514,-0.407109 -8.141244,-0.510857 -10.802889,-0.203085 -8.276952,0.957081 -15.685078,4.35775 -22.00653,10.102001 -8.836418,8.029582 -13.843119,20.309026 -13.070903,32.057732 0.407183,6.195024 1.327136,9.398768 5.515867,19.209065 0.875655,2.050847 1.644737,3.866102 1.709071,4.033898 0.06433,0.167797 0.166168,0.305085 0.226298,0.305085 0.06013,0 2.184543,-2.089831 4.720913,-4.644068 z"
     id="path1" /></svg>
